<?xml version="1.0" standalone="no"?>
<!DOCTYPE svg PUBLIC "-//W3C//DTD SVG 20010904//EN"
 "http://www.w3.org/TR/2001/REC-SVG-20010904/DTD/svg10.dtd">
<svg version="1.0" xmlns="http://www.w3.org/2000/svg"
 width="500.000000pt" height="500.000000pt" viewBox="0 0 500.000000 500.000000"
 preserveAspectRatio="xMidYMid meet">

<g transform="translate(0.000000,500.000000) scale(0.100000,-0.100000)"
fill="#000000" stroke="none">
<path d="M1532 4632 c-18 -38 -32 -78 -32 -89 0 -32 33 -65 63 -65 72 0 88 77
36 168 -17 30 -31 54 -33 54 -1 0 -16 -31 -34 -68z m64 -19 c-3 -8 -2 -12 3
-8 12 7 24 -49 16 -75 -9 -28 -51 -37 -75 -15 -26 23 -25 44 2 107 l22 51 18
-23 c10 -13 16 -30 14 -37z"/>
<path d="M1601 4568 c0 -9 -4 -25 -7 -35 -5 -14 -4 -15 5 -7 7 7 11 22 8 35
-2 13 -5 16 -6 7z"/>
<path d="M2118 4637 c-37 -84 -39 -114 -12 -141 39 -40 108 -4 108 57 0 29
-51 147 -64 147 -3 0 -17 -29 -32 -63z m82 -80 c0 -30 -5 -40 -24 -49 -31 -14
-53 -5 -67 26 -9 20 -7 34 15 82 l27 58 24 -39 c14 -23 25 -56 25 -78z"/>
<path d="M2179 4552 c-3 -20 -2 -29 4 -23 5 5 7 19 5 32 -3 20 -5 19 -9 -9z"/>
<path d="M2701 4638 c-49 -101 -36 -158 37 -158 67 0 80 73 28 164 l-33 58
-32 -64z m63 -29 c-2 -4 2 -9 8 -12 10 -3 9 -12 -4 -40 -10 -21 -13 -37 -8
-37 6 0 10 7 10 15 0 8 5 15 11 15 20 0 -17 -45 -40 -48 -52 -8 -67 57 -30
130 l21 41 18 -29 c11 -15 17 -31 14 -35z"/>
<path d="M3282 4632 c-36 -77 -39 -98 -16 -130 10 -15 25 -22 49 -22 40 0 65
29 65 75 0 26 -38 115 -60 138 -3 4 -21 -23 -38 -61z m63 -20 c-3 -7 -1 -11 4
-7 10 6 26 -53 17 -62 -3 -4 -6 2 -7 13 0 18 -1 18 -9 -1 -12 -29 -12 -37 3
-29 6 4 4 -1 -5 -12 -14 -14 -23 -16 -45 -8 -37 13 -41 53 -12 116 l23 49 18
-23 c10 -13 16 -29 13 -36z"/>
<path d="M834 4553 c3 -10 -1 -28 -9 -39 -16 -21 -20 -74 -6 -74 5 0 11 14 15
30 3 17 9 43 12 59 4 17 1 32 -6 36 -9 5 -10 2 -6 -12z"/>
<path d="M686 4531 c7 -7 9 -31 7 -55 -4 -28 -1 -46 7 -51 17 -10 17 -6 11 54
-4 36 -11 56 -21 59 -11 3 -12 2 -4 -7z"/>
<path d="M981 4518 c0 -10 -12 -25 -26 -34 -29 -19 -41 -52 -26 -67 8 -8 11
-6 11 8 0 10 12 31 26 46 16 16 24 34 21 46 -4 16 -5 16 -6 1z"/>
<path d="M2401 4450 c-25 -59 -17 -90 25 -90 39 0 52 40 29 90 -10 23 -22 43
-26 45 -3 3 -16 -18 -28 -45z m39 -6 c7 -17 7 -32 0 -45 -24 -43 -50 -7 -30
41 15 37 18 37 30 4z"/>
<path d="M566 4443 c7 -16 14 -35 14 -43 0 -20 20 -40 39 -40 12 0 12 3 -1 18
-9 9 -23 34 -31 55 -9 20 -20 37 -26 37 -5 0 -3 -12 5 -27z"/>
<path d="M4002 4439 c-51 -25 -85 -68 -104 -126 -12 -41 -15 -43 -51 -43 -29
0 -46 -7 -68 -29 -45 -45 -35 -101 18 -101 12 0 42 -13 65 -30 94 -65 236 -74
333 -22 l50 27 37 -18 c68 -34 190 -19 247 29 58 49 49 118 -23 182 -57 50
-146 52 -198 5 -16 -14 -18 -13 -28 13 -44 115 -170 166 -278 113z m177 -19
c46 -23 78 -70 87 -128 4 -23 9 -42 11 -42 2 0 16 13 29 30 53 62 147 59 204
-7 27 -31 31 -42 26 -72 -7 -44 -43 -75 -102 -90 -80 -20 -122 -13 -170 30
-20 19 -21 19 -58 -10 -91 -72 -267 -64 -353 18 -12 12 -32 19 -49 18 -38 -3
-44 27 -12 60 23 24 39 26 93 8 17 -5 22 2 37 54 20 67 58 117 103 137 44 19
110 17 154 -6z"/>
<path d="M4216 4347 c3 -10 9 -15 12 -12 3 3 0 11 -7 18 -10 9 -11 8 -5 -6z"/>
<path d="M4440 4190 c-9 -6 -10 -10 -3 -10 6 0 15 5 18 10 8 12 4 12 -15 0z"/>
<path d="M4420 4160 c-23 -7 -23 -8 -3 -9 12 -1 25 4 28 9 3 6 5 10 3 9 -2 -1
-14 -5 -28 -9z"/>
<path d="M3950 4120 c8 -5 24 -10 34 -10 26 0 18 6 -19 14 -22 5 -26 4 -15 -4z"/>
<path d="M4028 4103 c6 -2 18 -2 25 0 6 3 1 5 -13 5 -14 0 -19 -2 -12 -5z"/>
<path d="M1108 4438 c-2 -6 -19 -17 -38 -23 -36 -12 -60 -39 -46 -52 4 -4 12
0 18 11 5 10 25 24 44 32 19 8 34 21 34 29 0 18 -7 20 -12 3z"/>
<path d="M740 4391 c-133 -44 -200 -138 -200 -280 0 -160 107 -265 267 -265
127 1 235 75 267 185 56 189 -55 354 -246 365 -35 2 -74 0 -88 -5z m185 -49
c91 -47 135 -122 135 -230 0 -95 -36 -168 -100 -199 -151 -75 -308 -37 -369
90 -28 57 -28 165 -2 223 24 53 83 109 135 128 54 21 150 15 201 -12z"/>
<path d="M629 4263 c-13 -16 -12 -17 4 -4 9 7 17 15 17 17 0 8 -8 3 -21 -13z"/>
<path d="M605 4229 c-4 -6 -5 -12 -2 -15 2 -3 7 2 10 11 7 17 1 20 -8 4z"/>
<path d="M468 4344 c12 -8 22 -22 22 -29 0 -15 47 -51 55 -43 8 7 -72 88 -87
88 -7 0 -2 -7 10 -16z"/>
<path d="M1822 4305 c-29 -60 -28 -90 2 -110 31 -20 63 -6 72 31 6 25 -31 124
-46 124 -3 0 -16 -20 -28 -45z m46 -10 c8 -16 8 -33 2 -49 -5 -13 -6 -27 -3
-30 8 -8 -11 -8 -31 0 -19 7 -21 43 -4 79 14 31 22 32 36 0z"/>
<path d="M3022 4301 c-28 -63 -28 -87 2 -106 31 -20 63 -6 72 31 6 24 -30 124
-45 124 -3 0 -16 -22 -29 -49z m46 -6 c8 -16 8 -33 2 -49 -5 -13 -6 -27 -2
-31 4 -4 -4 -5 -18 -3 -30 4 -38 35 -20 79 15 36 23 36 38 4z"/>
<path d="M1187 4319 c-9 -6 -26 -8 -36 -4 -11 3 -28 -3 -42 -16 l-24 -21 25 7
c14 4 40 9 58 12 18 3 35 10 38 15 9 14 1 18 -19 7z"/>
<path d="M2417 4223 c-4 -3 -7 -21 -7 -39 0 -32 -2 -33 -47 -39 -259 -35 -462
-176 -565 -390 -65 -138 -81 -215 -83 -418 -3 -173 4 -214 28 -175 9 13 19 12
91 -4 44 -10 91 -21 103 -23 14 -3 20 -10 17 -19 -9 -23 18 -31 33 -10 12 19
17 20 100 8 49 -7 109 -13 136 -13 34 -1 47 -5 47 -15 0 -23 22 -31 35 -13 9
12 28 17 69 17 l56 0 0 -110 c0 -67 4 -110 10 -110 6 0 10 98 10 275 0 249 5
308 24 259 3 -9 6 -132 6 -275 0 -166 4 -259 10 -259 6 0 10 43 10 110 l0 110
70 0 c56 0 70 -3 70 -15 0 -22 37 -18 43 5 4 17 14 20 69 20 34 0 110 7 168
15 91 12 106 12 116 -1 20 -25 40 -15 35 18 0 3 23 12 52 18 29 7 67 19 86 26
26 11 37 11 48 2 24 -20 35 4 24 53 -6 24 -17 92 -26 151 -49 330 -180 543
-415 671 -79 43 -209 82 -307 92 -63 6 -73 10 -73 27 0 38 -26 69 -43 51z m23
-48 c0 -14 -4 -25 -10 -25 -5 0 -10 11 -10 25 0 14 5 25 10 25 6 0 10 -11 10
-25z m68 -109 c81 -73 154 -313 169 -555 6 -95 5 -104 -10 -98 -88 34 -272 32
-375 -2 -34 -12 -64 -21 -67 -21 -18 0 5 318 30 415 22 87 86 213 135 268 42
48 42 48 69 31 14 -9 36 -26 49 -38z m152 -1 c74 -45 160 -139 211 -230 45
-81 93 -221 83 -244 -5 -11 -11 -2 -20 29 l-14 45 6 -40 c3 -22 8 -51 10 -65
3 -18 2 -21 -5 -11 -11 17 -66 28 -56 11 3 -6 10 -8 15 -5 5 3 7 -12 4 -32
l-4 -38 14 40 c12 34 14 36 15 14 1 -14 -5 -34 -13 -44 -14 -20 -11 -49 5 -39
5 3 9 -2 9 -10 0 -8 5 -18 12 -22 8 -5 9 -2 5 9 -3 10 -2 17 3 17 6 0 10 -9
10 -20 0 -11 5 -20 10 -20 6 0 10 5 10 12 0 6 7 3 15 -8 15 -20 21 -58 8 -52
-49 23 -63 32 -63 39 0 4 -9 6 -19 4 -13 -2 -18 1 -15 9 3 7 1 24 -5 38 -8 22
-14 24 -55 22 -41 -2 -46 0 -46 19 0 18 -2 19 -10 7 -9 -13 -10 -13 -11 0 -1
8 -5 2 -9 -15 -7 -28 -8 -29 -9 -4 0 14 3 29 8 35 4 5 11 23 14 41 5 26 2 36
-19 52 -15 12 -35 47 -50 88 -13 37 -24 59 -24 49 0 -27 -6 -17 -14 24 -4 25
-3 31 4 20 17 -26 11 -6 -14 46 -13 27 -29 67 -36 89 -21 65 -50 118 -87 156
l-34 36 51 -8 c29 -4 76 -23 110 -44z m-333 -14 c-18 -26 -36 -46 -41 -43 -5
3 -7 -1 -4 -9 3 -8 -1 -20 -8 -27 -7 -7 -10 -20 -7 -29 4 -9 2 -14 -3 -10 -6
3 -16 -25 -23 -66 -15 -81 -20 -94 -31 -77 -4 7 -10 -9 -14 -36 -11 -83 -17
-104 -27 -98 -9 5 -11 -18 -10 -106 0 -43 0 -44 -8 -12 -5 18 -12 36 -16 40
-3 4 -3 -6 1 -22 5 -21 4 -27 -5 -22 -6 4 -11 2 -11 -3 0 -6 4 -11 9 -11 5 0
8 -8 7 -17 0 -10 5 -17 12 -15 8 1 12 -11 12 -34 0 -31 2 -35 15 -24 9 7 15
35 18 73 3 61 3 61 5 -14 2 -85 -1 -89 -79 -89 -37 0 -125 -26 -146 -43 -10
-7 -13 -3 -13 14 0 15 3 19 8 12 5 -8 13 -9 22 -3 10 7 11 10 3 10 -7 0 -13
12 -14 28 l-1 27 -8 -25 c-17 -51 2 177 21 248 46 176 174 348 303 408 28 13
54 24 58 24 3 0 -8 -22 -25 -49z m-122 7 c-155 -127 -244 -308 -261 -532 -3
-44 -8 -94 -9 -111 -2 -16 -4 -44 -4 -61 -1 -30 -3 -32 -52 -36 -35 -4 -64
-15 -95 -36 l-44 -32 1 78 c1 42 5 102 9 132 7 41 7 29 4 -47 l-6 -103 26 0
c23 0 26 4 25 33 0 33 -16 80 -20 62 -1 -5 -5 26 -9 70 -5 55 -3 97 7 135 19
78 86 207 134 260 23 25 36 37 29 27 -7 -9 -11 -20 -8 -22 7 -7 29 20 32 38 3
24 23 43 92 88 59 39 154 86 179 88 5 1 -8 -14 -30 -31z m606 -25 c77 -38 110
-62 180 -132 73 -72 94 -101 132 -181 25 -52 56 -133 67 -180 23 -92 53 -260
47 -267 -2 -2 -16 6 -31 18 -31 24 -105 49 -148 49 -27 0 -28 2 -27 43 1 36 2
38 9 17 8 -24 8 -24 8 5 1 17 -3 48 -7 70 l-9 40 -2 -45 c-2 -34 -4 -38 -7
-15 -17 145 -86 343 -153 439 -38 56 -110 131 -155 164 -53 38 -3 25 96 -25z
m-597 -345 c-4 -40 -9 -67 -12 -60 -5 17 8 145 15 139 2 -3 1 -38 -3 -79z
m473 -5 c-3 -10 -5 -4 -5 12 0 17 2 24 5 18 2 -7 2 -21 0 -30z m26 -115 c3
-40 2 -68 -4 -68 -5 0 -9 15 -9 34 0 18 -3 55 -6 82 -3 33 -2 44 4 34 5 -8 12
-45 15 -82z m35 30 c15 -15 16 -48 2 -48 -5 0 -10 8 -10 18 0 10 -5 23 -12 30
-7 7 -8 12 -2 12 6 0 15 -5 22 -12z m-571 -70 c-2 -13 -4 -5 -4 17 -1 22 1 32
4 23 2 -10 2 -28 0 -40z m801 -15 c8 -41 9 -60 1 -68 -8 -7 -10 -4 -8 10 3 18
-3 49 -17 98 -3 9 -1 17 3 17 5 0 14 -26 21 -57z m-241 -25 c-3 -7 -5 -2 -5
12 0 14 2 19 5 13 2 -7 2 -19 0 -25z m210 0 c-3 -8 -6 -5 -6 6 -1 11 2 17 5
13 3 -3 4 -12 1 -19z m-770 -40 c-3 -7 -5 -2 -5 12 0 14 2 19 5 13 2 -7 2 -19
0 -25z m613 8 c0 -13 67 -33 76 -23 3 3 -11 8 -31 11 -19 4 -35 11 -35 16 0 5
19 3 43 -4 43 -12 61 -43 22 -39 -48 6 -119 21 -103 22 11 1 15 7 10 23 -3 14
-2 19 6 14 7 -4 12 -13 12 -20z m-50 -21 c0 -8 -6 -15 -13 -15 -8 0 -14 7 -14
15 0 8 6 15 14 15 7 0 13 -7 13 -15z m-233 -77 c-2 -13 -4 -3 -4 22 0 25 2 35
4 23 2 -13 2 -33 0 -45z m-110 30 c-3 -8 -6 -5 -6 6 -1 11 2 17 5 13 3 -3 4
-12 1 -19z m190 0 c-3 -8 -6 -5 -6 6 -1 11 2 17 5 13 3 -3 4 -12 1 -19z m-207
1 c0 -5 -4 -8 -9 -4 -12 7 -30 -25 -24 -42 8 -21 -11 -15 -25 8 -8 12 -9 18
-3 14 6 -3 11 1 11 9 0 13 13 20 43 25 4 0 7 -4 7 -10z m280 0 c13 -9 13 -10
-2 -6 -9 3 -19 1 -21 -6 -2 -7 -8 -9 -12 -5 -8 7 2 28 13 28 4 0 14 -5 22 -11z
m139 1 c19 10 22 9 19 -7 -2 -12 2 -17 12 -14 49 13 78 9 83 -10 3 -12 11 -17
21 -13 9 3 16 1 16 -6 0 -6 4 -9 8 -6 5 3 8 -7 7 -22 -1 -15 2 -32 7 -38 11
-15 49 -6 67 15 12 14 13 14 8 -7 -5 -19 -3 -21 9 -11 8 6 17 9 21 5 3 -3 1
-6 -5 -6 -7 0 -12 -8 -11 -17 0 -13 2 -14 6 -4 5 11 7 11 15 0 7 -11 11 -11
15 -1 2 6 11 12 18 12 7 0 15 6 18 13 2 6 4 -2 4 -20 0 -27 -6 -35 -44 -54
-24 -12 -41 -24 -39 -26 2 -3 23 5 46 17 23 12 47 19 53 16 7 -2 3 -5 -8 -5
-17 -1 -18 -3 -5 -12 13 -9 13 -10 0 -6 -8 2 -30 -4 -49 -14 -61 -32 -76 5
-19 45 14 10 17 16 9 16 -8 0 -23 -7 -33 -17 -18 -16 -26 -5 -8 13 14 14 -23
35 -41 23 -9 -6 -10 -9 -2 -9 8 0 11 -12 8 -32 -2 -18 0 -38 6 -44 5 -7 6 -14
2 -17 -29 -18 -385 -47 -471 -39 l-42 4 0 106 c0 65 4 102 9 97 5 -6 11 -26
14 -45 4 -33 4 -33 5 8 1 23 7 42 13 42 8 0 8 4 0 14 -13 16 -2 50 17 54 10 2
12 -5 7 -29 -5 -20 -4 -29 3 -25 6 3 13 0 15 -6 3 -7 6 -4 7 7 l1 20 15 -20
c16 -19 16 -19 9 5 -4 14 -10 32 -13 40 -3 8 4 4 16 -10 12 -14 21 -20 22 -14
0 15 30 13 30 -2 0 -7 8 -10 20 -7 11 3 20 10 20 15 0 5 5 6 10 3 6 -3 10 -15
10 -27 0 -17 -2 -18 -15 -8 -13 10 -18 11 -28 1 -9 -10 -9 -11 4 -6 9 3 22 -1
29 -10 21 -25 43 -19 36 11 -5 18 -3 24 5 19 6 -4 15 -1 20 6 6 10 9 11 9 2 0
-7 7 -13 16 -13 13 0 13 2 2 13 -19 19 -48 28 -48 15 0 -6 -2 -9 -5 -6 -3 3
-2 13 1 22 5 13 9 14 14 6 6 -9 13 -9 29 0z m-662 -32 c-3 -8 -6 -5 -6 6 -1
11 2 17 5 13 3 -3 4 -12 1 -19z m-33 -12 c-3 -9 -10 -13 -15 -10 -5 3 -9 2 -9
-3 0 -4 -3 -19 -6 -33 l-5 -25 15 25 15 25 1 -27 c0 -16 -4 -28 -9 -28 -19 0
-18 -26 0 -27 11 -1 17 3 13 8 -3 5 0 16 6 24 7 8 9 26 6 40 -5 18 -2 25 8 25
11 0 14 -9 11 -35 -3 -19 -1 -35 5 -35 5 0 12 16 16 35 3 19 10 35 15 35 5 0
9 8 10 18 0 11 2 12 6 4 3 -7 0 -19 -7 -27 -10 -12 -8 -13 9 -10 12 2 25 7 31
10 12 8 42 -64 36 -87 -2 -10 0 -21 5 -24 5 -3 9 -21 9 -40 0 -19 5 -34 11
-34 7 0 9 9 6 23 -16 61 -19 107 -8 107 6 0 11 -15 12 -32 1 -30 2 -29 11 12
5 25 10 53 10 62 -1 15 2 16 19 5 16 -10 21 -9 29 3 6 9 5 17 -3 22 -8 5 -6 8
6 8 9 0 17 -6 18 -12 0 -7 5 -4 10 7 8 17 9 16 6 -7 -3 -17 0 -28 8 -28 6 0
12 -6 13 -12 14 -149 14 -208 1 -208 -8 0 -89 7 -181 15 -172 15 -341 45 -381
67 -12 7 -28 11 -34 10 -7 -2 -13 2 -13 8 0 6 -11 8 -27 4 l-28 -6 25 14 c14
8 27 10 28 6 2 -4 10 -8 18 -8 11 0 12 4 6 16 -6 12 -5 23 6 35 18 20 32 16
32 -9 0 -13 -2 -14 -9 -3 -12 18 -24 -3 -16 -28 5 -16 11 -18 40 -11 23 5 35
4 35 -3 0 -6 3 -7 6 -4 4 4 1 13 -6 22 -7 9 -10 19 -6 22 4 4 12 1 17 -7 8
-12 9 -11 7 5 -2 11 -10 20 -17 20 -8 0 -16 7 -18 15 -3 9 -1 11 4 5 13 -16
71 -18 76 -3 2 7 3 5 2 -4 -2 -10 1 -18 6 -18 4 0 5 -8 2 -17 -6 -15 -7 -15
-14 3 -6 16 -8 16 -8 2 -1 -9 -8 -21 -17 -26 -14 -8 -14 -10 1 -25 9 -9 14
-21 10 -26 -3 -6 3 -9 14 -8 15 1 19 8 16 34 -2 19 3 40 11 48 17 17 18 42 2
48 -10 4 -10 7 -1 18 17 17 26 5 27 -36 1 -30 3 -32 16 -20 13 13 12 19 -3 44
-21 36 -23 63 -2 35 13 -17 14 -17 15 -1 0 15 11 22 33 18 4 0 7 4 7 11 0 6 2
9 5 6 3 -3 3 -13 -1 -22z m196 8 c0 -2 -7 -4 -15 -4 -8 0 -15 4 -15 10 0 5 7
7 15 4 8 -4 15 -8 15 -10z m-5 -22 c-11 -11 -34 -10 -38 2 -4 9 3 11 19 8 14
-2 22 -7 19 -10z m5 -33 c0 -5 -9 -9 -20 -9 -19 0 -26 11 -14 23 8 8 34 -3 34
-14z m887 -55 c-3 -16 0 -23 7 -21 6 2 10 12 8 22 -2 10 1 14 7 10 17 -10 13
-33 -8 -45 -25 -13 -34 -13 -26 0 3 6 1 10 -6 10 -8 0 -8 4 1 15 9 11 9 15 1
15 -7 0 -9 5 -6 10 3 6 1 10 -4 10 -6 0 -11 5 -11 10 0 7 7 7 21 -1 15 -8 20
-18 16 -35z m-1294 -21 c-7 -2 -19 -2 -25 0 -7 3 -2 5 12 5 14 0 19 -2 13 -5z"/>
<path d="M2366 3975 c-9 -26 -7 -32 5 -12 6 10 9 21 6 23 -2 3 -7 -2 -11 -11z"/>
<path d="M2632 3670 c0 -14 2 -19 5 -12 2 6 2 18 0 25 -3 6 -5 1 -5 -13z"/>
<path d="M2381 3654 c0 -11 3 -14 6 -6 3 7 2 16 -1 19 -3 4 -6 -2 -5 -13z"/>
<path d="M2642 3610 c0 -19 3 -57 8 -85 6 -40 7 -43 8 -15 0 19 -3 58 -8 85
-6 40 -7 43 -8 15z"/>
<path d="M2372 3600 c0 -14 2 -19 5 -12 2 6 2 18 0 25 -3 6 -5 1 -5 -13z"/>
<path d="M2627 3545 c3 -38 7 -72 9 -74 7 -8 3 64 -6 104 -7 31 -7 24 -3 -30z"/>
<path d="M2601 3564 c0 -11 3 -14 6 -6 3 7 2 16 -1 19 -3 4 -6 -2 -5 -13z"/>
<path d="M2242 3505 c0 -16 2 -22 5 -12 2 9 2 23 0 30 -3 6 -5 -1 -5 -18z"/>
<path d="M2612 3480 c0 -14 2 -19 5 -12 2 6 2 18 0 25 -3 6 -5 1 -5 -13z"/>
<path d="M2240 3444 c0 -14 4 -23 9 -20 5 3 7 15 4 26 -7 28 -13 25 -13 -6z"/>
<path d="M2600 4010 c6 -11 13 -20 16 -20 2 0 0 9 -6 20 -6 11 -13 20 -16 20
-2 0 0 -9 6 -20z"/>
<path d="M2635 3959 c-6 -8 -4 -10 5 -4 10 6 12 4 7 -8 -3 -9 0 -35 7 -59 l14
-43 -3 53 c-3 56 -17 84 -30 61z"/>
<path d="M2787 3738 c42 -103 43 -106 36 -73 -7 34 -49 135 -57 135 -2 0 7
-28 21 -62z"/>
<path d="M2795 3569 c-4 -6 -4 -13 -1 -16 3 -3 1 -12 -5 -20 -15 -17 -2 -17
16 1 11 10 11 16 2 26 -10 10 -7 11 11 5 13 -4 22 -2 22 4 0 14 -37 14 -45 0z"/>
<path d="M2223 3875 c-3 -9 -3 -18 -1 -21 3 -3 8 4 11 16 6 23 -1 27 -10 5z"/>
<path d="M2211 3824 c0 -11 3 -14 6 -6 3 7 2 16 -1 19 -3 4 -6 -2 -5 -13z"/>
<path d="M2091 3675 c-1 -27 -3 -68 -4 -90 -2 -37 -4 -40 -35 -43 -18 -2 -30
-7 -27 -12 3 -5 19 -5 36 0 27 8 31 6 39 -16 12 -32 12 -37 0 -29 -6 3 -7 -1
-4 -10 4 -9 9 -14 11 -11 9 9 11 106 2 106 -4 0 -10 35 -12 78 -2 58 -4 65 -6
27z"/>
<path d="M1990 3525 c7 -8 10 -22 6 -30 -4 -12 2 -15 27 -14 30 1 31 1 7 9
-14 4 -21 8 -16 9 5 1 3 7 -3 14 -6 8 -8 17 -4 20 3 4 -2 7 -12 7 -14 0 -15
-3 -5 -15z"/>
<path d="M2070 3510 c-9 -6 -10 -10 -3 -10 6 0 15 5 18 10 8 12 4 12 -15 0z"/>
<path d="M1992 3420 c0 -14 2 -19 5 -12 2 6 2 18 0 25 -3 6 -5 1 -5 -13z"/>
<path d="M2110 4020 c-9 -6 -10 -10 -3 -10 6 0 15 5 18 10 8 12 4 12 -15 0z"/>
<path d="M1992 3825 c-17 -37 -14 -45 4 -12 9 16 14 31 11 33 -2 2 -9 -7 -15
-21z"/>
<path d="M1843 3625 c0 -22 2 -30 4 -17 2 12 2 30 0 40 -3 9 -5 -1 -4 -23z"/>
<path d="M1931 3634 c0 -11 3 -14 6 -6 3 7 2 16 -1 19 -3 4 -6 -2 -5 -13z"/>
<path d="M1922 3560 c0 -19 2 -27 5 -17 2 9 2 25 0 35 -3 9 -5 1 -5 -18z"/>
<path d="M1846 3534 c-4 -14 -5 -28 -3 -31 3 -2 8 8 11 23 4 14 5 28 3 31 -3
2 -8 -8 -11 -23z"/>
<path d="M1862 3485 c0 -11 4 -31 8 -45 l8 -25 0 25 c0 14 -3 34 -8 45 l-9 20
1 -20z"/>
<path d="M1801 3414 c0 -11 3 -14 6 -6 3 7 2 16 -1 19 -3 4 -6 -2 -5 -13z"/>
<path d="M2970 3831 c0 -6 4 -13 10 -16 6 -3 7 1 4 9 -7 18 -14 21 -14 7z"/>
<path d="M2936 3817 c3 -10 9 -15 12 -12 3 3 0 11 -7 18 -10 9 -11 8 -5 -6z"/>
<path d="M3050 3661 c0 -6 4 -13 10 -16 6 -3 7 1 4 9 -7 18 -14 21 -14 7z"/>
<path d="M3076 3610 c3 -14 10 -32 15 -40 7 -13 8 -13 8 0 0 8 -6 26 -15 40
l-15 25 7 -25z"/>
<path d="M3186 3445 c3 -22 8 -53 11 -70 4 -24 2 -27 -7 -15 -9 13 -11 12 -8
-4 2 -11 7 -18 13 -17 5 1 12 -6 16 -16 15 -38 8 20 -11 92 -11 39 -17 52 -14
30z"/>
<path d="M3171 3404 c0 -11 3 -14 6 -6 3 7 2 16 -1 19 -3 4 -6 -2 -5 -13z"/>
<path d="M2843 3355 c-7 -7 -8 -17 -2 -26 7 -12 9 -12 9 1 0 13 1 13 10 0 11
-17 12 -3 2 21 -6 13 -9 14 -19 4z"/>
<path d="M2884 3356 c11 -9 14 -16 8 -16 -7 0 -12 -10 -11 -22 0 -21 1 -21 8
-4 10 25 17 10 16 -33 0 -29 -5 -36 -25 -42 -24 -7 -24 -7 -2 -8 12 -1 22 -6
22 -12 0 -7 -15 -9 -42 -5 -36 5 -39 4 -18 -4 27 -12 100 -4 100 11 0 5 -9 9
-21 9 -19 0 -19 1 -4 16 8 9 13 24 11 33 -3 9 -8 28 -12 44 -3 15 -16 32 -28
38 -20 10 -20 10 -2 -5z"/>
<path d="M2635 3339 c-4 -6 -4 -13 -1 -16 3 -4 6 0 6 8 0 11 2 11 10 -1 8 -13
10 -12 10 3 0 19 -15 23 -25 6z"/>
<path d="M2927 3333 c-2 -5 -1 -17 3 -27 6 -19 7 -19 12 2 6 21 -6 40 -15 25z"/>
<path d="M2782 3321 c1 -3 -2 -14 -7 -24 -13 -30 2 -30 17 1 12 22 12 29 2 29
-7 0 -12 -3 -12 -6z"/>
<path d="M2720 3281 c0 -10 30 -24 37 -17 3 3 2 9 -2 15 -8 13 -35 15 -35 2z"/>
<path d="M2887 3283 c-4 -3 -7 -13 -7 -22 1 -13 3 -13 11 2 11 19 8 33 -4 20z"/>
<path d="M2936 3263 c-9 -23 12 -42 25 -23 8 12 9 11 7 -5 -2 -11 -17 -26 -33
-34 -16 -8 -24 -16 -18 -18 7 -3 21 1 32 7 14 7 21 7 21 0 0 -5 5 -10 11 -10
16 0 0 62 -21 82 -17 16 -19 16 -24 1z"/>
<path d="M2541 3254 c0 -11 3 -14 6 -6 3 7 2 16 -1 19 -3 4 -6 -2 -5 -13z"/>
<path d="M2714 3239 c-7 -11 80 -18 96 -8 11 8 10 9 -7 4 -13 -4 -23 -2 -23 3
0 10 -59 11 -66 1z"/>
<path d="M2699 3183 c-6 -37 3 -59 20 -48 8 4 9 11 2 18 -5 7 -11 23 -13 37
-3 23 -4 22 -9 -7z"/>
<path d="M2311 3254 c0 -11 3 -14 6 -6 3 7 2 16 -1 19 -3 4 -6 -2 -5 -13z"/>
<path d="M2120 3251 c0 -6 8 -15 18 -18 9 -4 19 -9 22 -13 3 -3 21 0 40 7 l35
13 -37 -5 c-26 -4 -38 -2 -38 6 0 7 -3 9 -7 6 -3 -4 -12 -2 -20 4 -9 9 -13 8
-13 0z"/>
<path d="M2100 3210 c0 -5 12 -10 26 -10 14 0 23 4 19 10 -3 6 -15 10 -26 10
-10 0 -19 -4 -19 -10z"/>
<path d="M2187 3205 c-43 -15 -65 -32 -27 -20 55 17 94 34 80 34 -8 0 -32 -6
-53 -14z"/>
<path d="M1930 3180 c0 -5 5 -10 11 -10 5 0 7 5 4 10 -3 6 -8 10 -11 10 -2 0
-4 -4 -4 -10z"/>
<path d="M2105 3170 c-3 -6 1 -7 9 -4 18 7 21 14 7 14 -6 0 -13 -4 -16 -10z"/>
<path d="M390 4210 c0 -5 7 -7 15 -4 8 3 28 -5 45 -20 17 -14 37 -23 45 -20
23 9 18 24 -9 24 -13 0 -29 7 -36 15 -14 17 -60 21 -60 5z"/>
<path d="M1143 4194 c-21 -9 -15 -26 7 -19 10 3 34 2 52 -3 33 -9 58 -6 58 6
0 4 -12 8 -27 9 -16 0 -39 4 -53 7 -14 3 -31 3 -37 0z"/>
<path d="M1531 4050 c-46 -99 -31 -150 43 -150 31 0 56 33 56 75 1 28 -48 144
-61 145 -3 0 -21 -32 -38 -70z m58 14 c6 -14 8 -30 5 -36 -4 -6 -2 -8 3 -5 12
8 23 -14 23 -46 0 -25 -27 -57 -48 -57 -24 0 -52 31 -52 56 0 25 40 114 50
114 4 0 12 -12 19 -26z"/>
<path d="M1601 3988 c0 -9 -4 -25 -7 -35 -5 -17 -5 -17 6 0 6 10 9 25 7 35 -4
15 -5 15 -6 0z"/>
<path d="M3282 4055 c-18 -36 -32 -76 -32 -88 0 -39 27 -67 65 -67 66 0 84 71
39 156 -14 27 -29 52 -33 56 -4 4 -21 -21 -39 -57z m64 -22 c-3 -8 -2 -11 4
-8 15 9 24 -63 10 -80 -20 -24 -50 -28 -71 -9 -25 22 -24 53 3 109 l23 46 18
-22 c10 -12 15 -29 13 -36z"/>
<path d="M3343 3970 c-6 -17 -7 -30 -2 -30 9 0 24 48 17 55 -2 2 -9 -9 -15
-25z"/>
<path d="M395 4072 c-11 -11 -4 -21 10 -16 8 3 27 2 42 -3 33 -11 63 -6 63 10
0 12 -104 19 -115 9z"/>
<path d="M1135 4070 c-3 -5 2 -10 13 -10 11 0 31 -9 45 -20 28 -22 52 -26 63
-9 4 7 0 9 -13 5 -13 -4 -27 2 -43 19 -24 26 -54 33 -65 15z"/>
<path d="M537 3963 c-4 -7 -28 -15 -52 -19 -45 -6 -64 -19 -50 -32 4 -4 10 -1
12 6 3 6 21 12 41 12 43 0 66 12 60 31 -3 9 -6 10 -11 2z"/>
<path d="M1136 3925 c45 -44 64 -55 64 -35 0 6 -7 10 -15 10 -8 0 -21 13 -29
29 -14 27 -34 41 -57 41 -5 0 11 -20 37 -45z"/>
<path d="M596 3861 c-11 -12 -24 -21 -31 -21 -12 0 -45 -31 -45 -43 0 -4 5 -7
10 -7 6 0 10 6 10 14 0 8 13 17 29 21 32 7 55 28 49 45 -2 7 -11 3 -22 -9z"/>
<path d="M1033 3863 c8 -10 18 -30 22 -45 8 -30 32 -55 43 -44 4 4 -1 12 -11
17 -9 6 -17 19 -17 30 0 30 -18 59 -37 59 -15 0 -15 -2 0 -17z"/>
<path d="M703 3810 c-6 -14 -20 -34 -32 -44 -22 -20 -29 -56 -10 -56 5 0 7 5
3 12 -4 6 7 22 25 38 25 19 32 32 29 51 l-4 24 -11 -25z"/>
<path d="M937 3774 c7 -77 19 -89 18 -19 0 30 -6 60 -12 66 -9 9 -11 -2 -6
-47z"/>
<path d="M815 3791 c3 -10 -2 -35 -12 -55 -13 -28 -14 -39 -5 -48 9 -9 12 -7
12 9 0 12 8 34 17 51 17 29 13 62 -7 62 -7 0 -9 -8 -5 -19z"/>
<path d="M4095 3751 c-28 -6 -30 -10 -28 -46 4 -70 34 -186 53 -205 10 -10 26
-51 35 -92 l18 -74 -31 -31 c-23 -22 -38 -29 -56 -26 -18 4 -28 -1 -40 -19
-14 -21 -14 -30 3 -93 10 -39 37 -115 61 -170 28 -67 42 -113 41 -139 -1 -21
2 -43 7 -50 5 -6 12 -65 16 -131 13 -245 90 -465 243 -695 24 -36 43 -73 43
-84 0 -37 23 -96 38 -96 12 0 13 9 6 53 -11 70 -10 98 6 260 21 209 -2 418
-71 633 -33 105 -35 114 -13 114 11 0 14 8 12 28 -2 18 -8 27 -20 26 -16 -2
-17 4 -10 40 13 74 7 308 -9 341 -15 31 -53 45 -72 26 -6 -6 -17 -5 -33 6 -22
14 -26 14 -48 -1 l-25 -16 -17 78 c-10 42 -17 91 -16 107 2 34 -26 208 -39
242 -5 13 -12 22 -16 22 -5 -1 -21 -4 -38 -8z m43 -28 c4 -35 8 -53 15 -59 17
-17 5 -34 -22 -34 -45 0 -57 58 -13 61 9 1 4 5 -13 9 -29 8 -29 8 -7 15 18 6
20 10 10 16 -9 6 -8 9 7 9 12 0 22 -7 23 -17z m30 -129 c2 -17 -3 -23 -25 -27
-35 -7 -37 -4 -29 28 8 33 49 32 54 -1z m1 -75 c-5 -10 -14 -19 -19 -19 -16 0
-21 19 -10 40 9 17 14 19 25 10 11 -9 12 -17 4 -31z m16 -115 c9 -41 15 -78
12 -80 -5 -5 -37 116 -37 141 0 33 9 12 25 -61z m115 -114 c6 -11 15 -20 19
-20 5 0 11 9 14 20 8 30 34 24 46 -11 16 -45 14 -244 -3 -299 l-14 -45 -6 80
c-9 106 -27 245 -32 245 -2 0 -1 -30 3 -67 4 -38 7 -115 7 -173 1 -105 1 -105
-24 -108 -15 -2 -20 0 -13 5 9 7 9 15 -1 38 -8 17 -19 64 -25 105 -12 79 -44
210 -36 150 17 -131 29 -240 29 -267 1 -17 4 -29 9 -26 4 2 7 -1 7 -6 0 -17
-26 -13 -41 6 -10 11 -10 14 -1 9 6 -4 12 -2 12 3 0 6 -6 11 -14 11 -7 0 -18
15 -24 33 l-11 32 5 -34 c4 -23 3 -31 -5 -27 -6 4 -11 2 -11 -3 0 -6 8 -11 17
-11 14 0 15 -2 4 -12 -10 -11 -15 -9 -26 5 -7 11 -11 26 -8 35 4 10 2 13 -5 8
-14 -8 -55 76 -41 84 4 3 -1 23 -11 45 -11 22 -19 44 -20 50 0 5 -7 29 -17 53
-12 31 -19 40 -25 30 -8 -10 -9 -10 -6 1 8 29 35 36 58 16 22 -20 36 -14 42
20 5 27 29 30 56 5 26 -25 42 -19 42 16 0 30 34 33 50 4z m-75 -390 c3 -5 -1
-10 -10 -10 -9 0 -13 5 -10 10 3 6 8 10 10 10 2 0 7 -4 10 -10z m200 -10 c3
-5 1 -10 -4 -10 -6 0 -11 5 -11 10 0 6 2 10 4 10 3 0 8 -4 11 -10z m-35 -10
c0 -5 -17 -14 -37 -19 -98 -25 -161 -41 -168 -41 -3 0 -5 8 -3 17 5 25 208 67
208 43z m-20 -71 c0 -16 -5 -20 -20 -16 -11 3 -20 1 -20 -4 0 -5 -12 -9 -26
-9 -21 0 -25 -3 -19 -17 5 -10 14 -49 20 -86 7 -37 16 -71 20 -75 4 -4 5 9 1
27 -15 81 -19 144 -8 137 6 -3 13 -2 17 4 3 5 11 10 17 10 7 0 6 -6 -2 -15 -7
-8 -8 -15 -3 -15 5 0 16 -26 23 -57 9 -37 15 -50 18 -36 2 12 -1 39 -7 60 -8
28 -7 39 2 45 9 6 9 8 0 8 -8 0 -10 7 -6 17 6 14 9 12 20 -12 36 -84 89 -315
73 -315 -11 0 1 -194 12 -198 5 -2 3 -10 -3 -18 -9 -11 -9 -18 -1 -26 14 -14
16 -55 3 -63 -10 -6 -11 -3 -35 165 l-15 105 5 -95 c11 -211 14 -253 19 -258
3 -3 5 3 5 14 0 10 5 26 10 34 7 11 9 6 7 -20 -1 -19 -9 -41 -17 -48 -8 -8
-10 -11 -4 -8 7 3 11 -6 10 -24 -1 -17 -6 -29 -11 -28 -6 2 -9 6 -8 11 2 4 -1
7 -6 7 -5 0 -7 13 -5 29 3 16 0 32 -6 36 -6 3 -10 -3 -10 -17 0 -20 -2 -19
-23 12 -48 71 -81 134 -67 126 8 -4 7 -1 -2 7 -22 18 -39 62 -28 73 5 5 1 37
-9 73 -13 49 -19 59 -23 43 -4 -12 -2 -22 4 -22 6 0 8 -9 5 -20 -3 -11 -1 -20
4 -20 4 0 6 -7 2 -17 -5 -13 -8 -12 -16 8 -11 29 -18 67 -19 94 0 11 -2 33 -5
49 -4 22 -7 25 -15 15 -7 -10 -8 -9 -3 6 10 26 9 27 -4 118 -14 102 -15 137 0
117 8 -12 10 -8 6 17 -2 19 1 34 8 37 8 3 12 -12 12 -44 2 -126 77 -444 148
-622 10 -24 24 -23 22 2 -1 11 -5 20 -9 20 -4 0 -7 3 -6 8 1 4 -3 17 -10 30
-7 12 -10 22 -6 22 3 0 2 6 -3 13 -45 56 -140 494 -114 520 6 6 11 18 11 27 0
13 -2 13 -11 0 -9 -13 -10 -13 -8 0 3 35 -1 40 -28 35 -20 -5 -24 -4 -13 3 8
5 31 12 50 16 26 4 30 3 15 -3 -18 -9 -17 -10 9 -10 21 -1 27 3 22 15 -3 8 -2
13 2 10 4 -2 14 -1 22 5 23 14 30 11 30 -12z m107 -381 c-3 -8 -6 -5 -6 6 -1
11 2 17 5 13 3 -3 4 -12 1 -19z"/>
<path d="M4373 3215 c0 -22 2 -30 4 -17 2 12 2 30 0 40 -3 9 -5 -1 -4 -23z"/>
<path d="M4146 3161 c6 -35 33 -104 33 -86 0 6 -8 35 -19 65 -13 35 -18 43
-14 21z"/>
<path d="M4150 3001 c0 -6 4 -13 10 -16 6 -3 7 1 4 9 -7 18 -14 21 -14 7z"/>
<path d="M4401 2564 c0 -11 3 -14 6 -6 3 7 2 16 -1 19 -3 4 -6 -2 -5 -13z"/>
<path d="M4411 2514 c0 -11 3 -14 6 -6 3 7 2 16 -1 19 -3 4 -6 -2 -5 -13z"/>
<path d="M4347 2503 c-4 -3 -7 -11 -7 -17 0 -6 5 -5 12 2 6 6 9 14 7 17 -3 3
-9 2 -12 -2z"/>
<path d="M4353 2445 c-3 -9 -3 -18 -1 -21 3 -3 8 4 11 16 6 23 -1 27 -10 5z"/>
<path d="M4421 2444 c0 -11 3 -14 6 -6 3 7 2 16 -1 19 -3 4 -6 -2 -5 -13z"/>
<path d="M4261 2434 c0 -11 3 -14 6 -6 3 7 2 16 -1 19 -3 4 -6 -2 -5 -13z"/>
<path d="M4372 2330 c0 -14 2 -19 5 -12 2 6 2 18 0 25 -3 6 -5 1 -5 -13z"/>
<path d="M4382 2280 c0 -14 2 -19 5 -12 2 6 2 18 0 25 -3 6 -5 1 -5 -13z"/>
<path d="M4401 2194 c0 -11 3 -14 6 -6 3 7 2 16 -1 19 -3 4 -6 -2 -5 -13z"/>
<path d="M1372 3484 c-28 -56 -28 -89 -1 -108 28 -19 60 -7 72 27 6 20 3 38
-14 73 -13 25 -26 47 -29 49 -4 2 -16 -16 -28 -41z m53 -56 c-2 -27 -7 -33
-26 -33 -29 0 -37 32 -18 77 l13 31 17 -21 c10 -13 16 -35 14 -54z"/>
<path d="M3532 3485 c-28 -57 -28 -90 -1 -109 28 -19 60 -7 72 27 6 20 3 39
-15 77 -12 27 -25 50 -28 50 -4 0 -16 -20 -28 -45z m53 -57 c-2 -27 -7 -33
-26 -33 -29 0 -37 32 -18 77 l13 31 17 -21 c10 -13 16 -35 14 -54z"/>
<path d="M805 3326 c-39 -18 -80 -62 -99 -108 l-16 -37 -36 24 c-80 54 -169
17 -221 -91 -18 -37 -33 -56 -49 -60 -13 -3 -24 -12 -24 -19 0 -10 28 -14 113
-17 l112 -3 64 -42 c110 -74 174 -69 261 20 l51 52 134 3 c109 3 135 6 135 18
0 8 -4 14 -8 14 -5 0 -19 22 -31 50 -35 78 -95 110 -151 80 -15 -8 -20 -4 -30
19 -15 36 -67 87 -103 100 -37 14 -65 13 -102 -3z m115 -21 c26 -13 80 -73 80
-88 0 -3 5 -18 10 -33 l11 -27 20 21 c38 41 90 23 120 -41 30 -68 32 -67 -101
-67 l-119 0 -30 -44 c-32 -47 -98 -86 -143 -86 -15 0 -60 23 -104 53 -74 50
-81 52 -154 55 l-76 4 28 59 c31 65 73 99 121 99 19 0 43 -14 76 -45 26 -25
51 -42 54 -38 4 3 7 23 7 42 0 107 111 182 200 136z"/>
<path d="M509 3143 c-12 -16 -12 -17 2 -6 9 7 20 9 24 5 5 -4 5 -1 1 6 -9 16
-11 15 -27 -5z"/>
<path d="M859 3043 c-17 -20 -18 -23 -3 -10 11 9 23 15 26 12 2 -3 5 2 5 10 0
19 1 20 -28 -12z"/>
<path d="M859 3013 c-13 -16 -12 -17 4 -4 9 7 17 15 17 17 0 8 -8 3 -21 -13z"/>
<path d="M1603 2916 l-27 -24 2 -126 c2 -69 -1 -126 -6 -126 -5 0 -17 9 -28
21 -10 12 -37 31 -59 42 -53 29 -178 30 -247 4 -49 -19 -112 -79 -128 -123
-14 -37 -12 -130 4 -167 30 -73 117 -130 223 -147 56 -9 93 -32 93 -56 0 -19
-41 -44 -73 -44 -38 0 -62 14 -108 63 -36 37 -41 39 -81 34 -29 -4 -50 -14
-65 -32 -80 -93 70 -255 238 -258 103 -2 155 18 220 83 l56 57 19 -29 c28 -42
98 -85 160 -98 66 -14 138 -1 201 36 46 27 63 50 63 85 0 18 5 15 30 -19 46
-64 101 -95 175 -100 35 -2 79 1 99 8 28 9 43 9 69 -1 42 -15 82 -6 111 26
l22 24 51 -25 c121 -60 277 -33 332 57 l18 29 34 -36 c19 -20 54 -45 78 -55
54 -24 163 -27 212 -6 44 18 97 63 120 102 l19 30 0 -28 c0 -64 46 -117 101
-117 33 0 79 29 89 56 6 14 10 86 10 159 0 123 2 135 19 145 29 15 49 12 71
-10 18 -18 20 -33 20 -145 0 -139 8 -165 55 -191 42 -22 89 -11 119 29 19 26
21 42 21 165 0 163 -13 215 -66 276 -53 60 -111 81 -198 71 -60 -6 -85 -7
-146 -2 -11 0 -30 -2 -42 -7 -23 -7 -23 -7 -23 101 0 119 -13 155 -67 190 -38
25 -192 26 -220 1 -13 -12 -23 -14 -33 -7 -54 34 -142 30 -191 -10 -22 -18
-23 -17 -57 5 -42 29 -117 32 -168 8 -31 -15 -37 -15 -68 0 -47 22 -114 20
-153 -4 -33 -20 -33 -20 -71 0 -44 23 -160 25 -204 3 -22 -11 -33 -10 -68 2
-51 18 -74 18 -122 1 l-38 -14 0 35 c0 66 -74 105 -127 68 -11 -8 -33 -44 -49
-80 -16 -36 -31 -65 -34 -65 -4 0 -19 28 -36 61 -46 98 -96 123 -151 75z m336
-30 c8 -9 11 -64 9 -172 -3 -156 -3 -159 -25 -162 -27 -4 -32 12 -35 111 l-3
69 -35 -81 c-51 -118 -70 -118 -121 -3 l-34 77 -5 -85 c-5 -83 -6 -85 -30 -85
l-25 0 -7 140 c-8 169 -5 195 26 195 19 0 31 -18 77 -115 30 -63 56 -115 59
-115 3 0 23 40 44 89 43 101 71 151 85 151 5 0 14 -6 20 -14z m709 -102 c25
-16 30 -52 8 -60 -8 -3 -28 2 -44 12 -29 17 -62 14 -62 -6 0 -5 20 -15 45 -21
80 -20 105 -82 55 -133 -38 -39 -170 -12 -170 35 0 29 25 34 67 14 23 -11 42
-14 51 -9 24 16 15 29 -29 41 -69 21 -93 55 -73 108 16 41 100 52 152 19z
m234 -12 c53 -52 48 -147 -10 -192 -45 -36 -135 -22 -166 25 -82 125 72 272
176 167z m221 27 c80 -43 88 -174 14 -219 -101 -62 -215 31 -177 144 23 70
103 107 163 75z m278 -19 c23 -23 29 -38 31 -77 1 -26 2 -63 3 -81 2 -32 -16
-62 -35 -62 -18 0 -30 40 -30 102 0 68 -10 88 -44 88 -43 0 -51 -15 -51 -92 0
-40 -4 -79 -8 -85 -12 -19 -35 -16 -47 6 -10 20 -14 188 -5 213 4 10 27 15 81
16 72 1 78 0 105 -28z m-1212 -6 c110 -93 12 -266 -120 -211 -82 34 -92 171
-15 218 45 27 98 25 135 -7z m262 -3 c28 -28 29 -33 29 -119 0 -74 -3 -91 -16
-96 -32 -12 -44 13 -44 88 0 79 -9 96 -50 96 -41 0 -50 -17 -50 -101 0 -62 -3
-78 -16 -83 -35 -13 -44 12 -44 124 0 58 2 109 5 112 3 3 39 6 81 6 71 2 77 0
105 -27z m-976 -110 c59 -26 107 -85 103 -124 -2 -27 -8 -33 -31 -35 -22 -3
-36 5 -66 40 -38 43 -39 43 -106 43 -61 0 -69 -3 -91 -28 -28 -33 -31 -63 -8
-95 19 -28 50 -41 128 -53 126 -21 179 -72 184 -179 2 -50 -1 -73 -16 -100
-44 -80 -176 -121 -277 -86 -94 31 -158 104 -136 152 16 36 54 31 86 -10 27
-36 87 -66 131 -66 33 0 94 26 110 48 23 29 17 79 -13 112 -22 24 -41 33 -93
42 -86 14 -145 43 -178 86 -23 30 -27 45 -27 104 0 64 2 69 36 103 19 20 53
42 75 50 55 20 141 18 189 -4z m1799 -163 c53 -16 121 -84 135 -134 17 -59 13
-144 -8 -189 -61 -132 -230 -166 -334 -67 -49 46 -67 93 -67 172 0 163 125
262 274 218z m304 -6 c18 -18 20 -18 53 0 64 35 168 19 216 -33 42 -46 52 -88
54 -233 1 -146 -4 -166 -47 -166 -36 0 -44 29 -44 153 0 126 -10 168 -45 191
-44 29 -121 17 -152 -23 -8 -11 -12 -60 -13 -149 0 -73 -5 -142 -10 -153 -7
-12 -21 -19 -41 -19 -43 0 -49 26 -49 232 0 155 2 184 17 200 21 23 38 23 61
0z m-1666 -2 c73 -21 128 -89 141 -176 5 -28 2 -47 -9 -62 -14 -21 -22 -22
-160 -22 -79 0 -144 -3 -144 -6 0 -24 46 -74 80 -88 52 -21 55 -20 117 8 47
22 53 23 73 9 35 -25 22 -54 -40 -86 -48 -25 -63 -28 -118 -24 -78 6 -130 38
-169 104 -24 41 -28 59 -28 123 0 64 4 82 28 122 48 82 141 122 229 98z m493
-9 c49 -22 89 -64 109 -112 20 -48 32 -268 17 -298 -15 -28 -66 -29 -81 -1
-10 19 -11 19 -63 -5 -28 -14 -61 -25 -72 -25 -73 0 -155 55 -186 125 -22 48
-25 151 -6 198 48 114 176 167 282 118z m464 1 c50 -25 76 -64 62 -91 -15 -27
-45 -27 -83 1 -39 27 -110 30 -135 5 -25 -25 -7 -49 48 -65 139 -42 173 -65
184 -125 5 -26 2 -47 -11 -73 -28 -56 -64 -77 -138 -82 -104 -7 -196 34 -196
87 0 55 37 65 90 26 67 -50 191 -24 161 34 -8 13 -32 26 -69 36 -135 37 -180
78 -169 157 10 72 63 107 162 108 38 0 73 -6 94 -18z"/>
<path d="M2766 2735 c-35 -36 -24 -100 21 -116 32 -11 73 24 73 62 0 54 -59
88 -94 54z"/>
<path d="M3018 2740 c-25 -15 -33 -66 -14 -95 21 -33 69 -34 90 -3 43 61 -14
134 -76 98z"/>
<path d="M2056 2718 c-20 -28 -20 -57 0 -86 41 -59 124 8 92 75 -18 38 -69 44
-92 11z"/>
<path d="M2159 2593 c-13 -16 -12 -17 4 -4 9 7 17 15 17 17 0 8 -8 3 -21 -13z"/>
<path d="M2251 2674 c0 -11 3 -14 6 -6 3 7 2 16 -1 19 -3 4 -6 -2 -5 -13z"/>
<path d="M2442 2670 c0 -14 2 -19 5 -12 2 6 2 18 0 25 -3 6 -5 1 -5 -13z"/>
<path d="M3134 2404 c-43 -21 -64 -62 -64 -126 1 -62 15 -92 56 -119 56 -37
130 -20 165 38 17 28 20 46 17 95 -4 55 -8 64 -41 94 -41 38 -82 44 -133 18z
m92 -52 c43 -29 43 -125 0 -154 -21 -14 -66 -8 -86 12 -25 25 -27 95 -4 128
15 22 66 30 90 14z"/>
<path d="M1778 2394 c-23 -12 -58 -59 -58 -79 0 -3 52 -5 115 -5 63 0 115 2
115 5 0 16 -33 66 -52 79 -28 20 -84 20 -120 0z"/>
<path d="M2223 2376 c-33 -30 -37 -39 -41 -92 -3 -50 0 -64 20 -94 31 -45 64
-62 112 -56 61 7 98 51 104 120 6 69 -10 109 -53 136 -50 31 -98 26 -142 -14z
m130 -48 c39 -46 6 -148 -49 -148 -35 0 -74 42 -74 79 0 86 73 127 123 69z"/>
<path d="M2869 2113 c-13 -16 -12 -17 4 -4 9 7 17 15 17 17 0 8 -8 3 -21 -13z"/>
<path d="M525 2468 c-4 -10 -3 -44 3 -75 7 -44 6 -77 -4 -133 -8 -41 -17 -145
-20 -231 -8 -179 10 -344 54 -489 35 -120 38 -140 18 -140 -11 0 -16 -9 -16
-30 0 -24 4 -30 21 -30 15 0 19 -4 15 -16 -31 -80 -31 -335 -1 -381 16 -24 53
-31 71 -13 8 8 15 6 24 -5 16 -19 39 -19 60 0 16 14 18 9 34 -67 9 -46 16
-109 16 -141 0 -66 18 -194 31 -218 6 -12 17 -15 46 -10 l38 6 -3 45 c-6 74
-31 182 -46 199 -16 17 -46 128 -46 169 0 13 6 22 15 22 8 0 20 9 27 20 8 13
24 20 44 20 49 0 59 19 45 91 -14 70 -63 214 -93 273 -14 27 -17 41 -9 49 15
15 14 43 -2 59 -8 9 -13 54 -13 143 -3 231 -61 423 -203 669 -38 65 -61 118
-65 147 -4 26 -13 55 -21 65 -13 18 -14 18 -20 2z m115 -282 c101 -176 164
-368 155 -476 -3 -44 -2 -48 4 -20 6 25 9 1 10 -85 0 -79 -3 -115 -9 -105 -7
11 -9 8 -7 -14 2 -28 -1 -29 -58 -42 -114 -24 -110 -27 -144 79 -49 155 -61
257 -57 477 4 208 19 311 42 288 7 -7 36 -53 64 -102z m190 -771 c0 -8 -10
-17 -22 -19 -123 -24 -184 -32 -191 -26 -13 12 11 23 93 41 96 22 120 23 120
4z m-245 -45 c3 -5 1 -10 -4 -10 -6 0 -11 5 -11 10 0 6 2 10 4 10 3 0 8 -4 11
-10z m253 -73 c41 -84 102 -251 102 -282 0 -30 -38 -45 -55 -21 -17 23 -30 20
-43 -9 -13 -29 -22 -30 -62 -10 -29 15 -30 14 -36 -9 -8 -35 -30 -39 -53 -10
-19 25 -20 25 -31 5 -14 -26 -36 -27 -50 -2 -17 32 -12 233 7 314 l18 72 6
-70 c5 -63 6 -65 7 -20 3 76 11 95 38 95 16 0 24 -6 25 -17 0 -13 3 -12 10 6
6 16 15 22 28 18 10 -2 25 -1 32 4 19 11 22 7 57 -64z m-13 -503 c4 -22 4 -36
0 -32 -10 10 -35 118 -34 148 1 25 19 -36 34 -116z m25 -63 c0 -21 -13 -41
-26 -41 -8 0 -14 10 -14 25 0 18 5 25 20 25 11 0 20 -4 20 -9z m20 -68 c-1
-50 -53 -59 -58 -10 -3 24 0 27 27 27 23 0 31 -5 31 -17z m18 -84 c-2 -18 -10
-25 -32 -27 -17 -2 -26 0 -22 7 4 5 2 12 -4 16 -20 12 -10 34 18 37 34 5 45
-4 40 -33z m2 -49 c0 -5 -7 -10 -16 -10 -8 0 -12 -4 -9 -10 3 -5 -1 -10 -10
-10 -9 0 -13 5 -10 10 3 6 1 10 -4 10 -6 0 -11 5 -11 10 0 6 14 10 30 10 17 0
30 -4 30 -10z"/>
<path d="M586 2217 c3 -10 9 -15 12 -12 3 3 0 11 -7 18 -10 9 -11 8 -5 -6z"/>
<path d="M563 2085 c0 -38 2 -53 4 -32 2 20 2 52 0 70 -2 17 -4 1 -4 -38z"/>
<path d="M620 2143 c0 -7 8 -34 19 -60 10 -26 26 -78 36 -116 10 -37 20 -65
22 -63 3 3 -7 44 -21 93 -26 92 -55 167 -56 146z"/>
<path d="M573 1950 c0 -25 2 -35 4 -22 2 12 2 32 0 45 -2 12 -4 2 -4 -23z"/>
<path d="M771 1804 c0 -11 3 -14 6 -6 3 7 2 16 -1 19 -3 4 -6 -2 -5 -13z"/>
<path d="M742 1620 c0 -14 2 -19 5 -12 2 6 2 18 0 25 -3 6 -5 1 -5 -13z"/>
<path d="M692 1575 c0 -16 2 -22 5 -12 2 9 2 23 0 30 -3 6 -5 -1 -5 -18z"/>
<path d="M621 1574 c0 -11 3 -14 6 -6 3 7 2 16 -1 19 -3 4 -6 -2 -5 -13z"/>
<path d="M632 1520 c0 -14 2 -19 5 -12 2 6 2 18 0 25 -3 6 -5 1 -5 -13z"/>
<path d="M702 1500 c0 -14 2 -19 5 -12 2 6 2 18 0 25 -3 6 -5 1 -5 -13z"/>
<path d="M723 1255 c0 -22 2 -30 4 -17 2 12 2 30 0 40 -3 9 -5 -1 -4 -23z"/>
<path d="M732 1165 c0 -16 2 -22 5 -12 2 9 2 23 0 30 -3 6 -5 -1 -5 -18z"/>
<path d="M891 1124 c0 -11 3 -14 6 -6 3 7 2 16 -1 19 -3 4 -6 -2 -5 -13z"/>
<path d="M652 1100 c0 -19 2 -27 5 -17 2 9 2 25 0 35 -3 9 -5 1 -5 -18z"/>
<path d="M742 1100 c0 -14 2 -19 5 -12 2 6 2 18 0 25 -3 6 -5 1 -5 -13z"/>
<path d="M2390 1799 c-80 -14 -84 -22 -65 -105 9 -38 22 -78 30 -90 20 -31 38
-199 39 -379 1 -138 -2 -165 -17 -188 -35 -54 -59 -61 -216 -67 -100 -4 -157
-11 -181 -22 -44 -19 -84 -65 -100 -114 -12 -36 -9 -120 5 -156 25 -63 -101
56 -139 131 -13 25 -29 67 -36 91 -14 53 -26 70 -50 70 -21 0 -39 -20 -45 -50
-6 -32 25 -106 73 -174 39 -55 53 -96 34 -96 -4 0 -45 13 -91 29 -65 23 -89
27 -114 20 -44 -12 -61 -33 -61 -73 0 -31 -4 -36 -48 -57 -116 -54 -101 -162
25 -189 161 -34 814 -37 1337 -5 444 27 624 58 687 117 24 22 31 62 13 73 -16
10 -12 32 8 40 9 4 61 13 114 20 109 14 148 33 148 70 0 46 -25 50 -285 49
l-240 -2 32 35 c41 43 60 101 44 131 -27 51 -98 32 -129 -34 -7 -16 -26 -54
-40 -84 l-27 -55 -63 -5 -62 -5 5 26 c9 40 -19 62 -71 56 l-42 -4 -6 46 c-24
178 -14 689 15 743 15 29 41 180 32 189 -26 26 -388 38 -513 18z m388 -10 c53
-6 101 -14 105 -18 8 -8 -10 -141 -22 -153 -3 -3 -51 -1 -106 4 -85 9 -302 1
-378 -15 -11 -2 -30 53 -42 120 l-6 41 53 11 c29 6 64 13 78 15 55 8 226 5
318 -5z m31 -196 c23 -6 23 -8 16 -86 -3 -44 -11 -91 -16 -105 -5 -14 -41 -55
-79 -91 -75 -72 -85 -96 -96 -211 -10 -106 8 -183 56 -246 48 -61 78 -143 58
-156 -62 -42 -83 -46 -289 -54 l-166 -6 -6 60 c-8 70 -35 148 -72 203 -14 21
-25 40 -25 42 0 3 27 7 60 10 73 6 119 31 142 77 27 53 23 335 -7 517 -7 40
-6 42 21 46 47 7 377 7 403 0z m-41 -312 l-43 -46 43 40 42 39 0 -57 c0 -31
-3 -57 -7 -57 -5 0 -26 -16 -48 -36 l-40 -36 41 31 c50 37 54 38 54 7 0 -17
-14 -34 -48 -59 -26 -20 -56 -46 -67 -58 -11 -13 9 1 45 29 61 49 65 51 69 30
2 -16 -6 -30 -30 -48 -40 -30 -90 -76 -69 -63 8 5 34 24 58 42 42 32 42 32 42
9 0 -17 -17 -36 -64 -72 -35 -27 -68 -48 -73 -47 -4 0 -11 30 -16 67 -6 57 -5
70 10 88 17 19 17 20 1 7 -16 -12 -18 -11 -18 6 0 11 10 33 22 49 14 18 16 24
5 15 -20 -16 -21 -10 -6 44 13 47 131 167 137 139 2 -9 -16 -37 -40 -63z m52
-327 c0 -38 -5 -49 -31 -72 -54 -46 -59 -47 -85 -16 -13 16 -23 34 -21 41 3
16 119 103 129 97 5 -3 8 -25 8 -50z m-1125 -62 c29 -153 184 -299 370 -347
63 -17 240 -22 317 -10 175 28 326 91 428 180 68 59 96 76 118 68 17 -7 15
-38 -4 -57 -21 -22 -40 -20 -23 2 13 16 0 8 -41 -27 -3 -2 4 -1 14 3 19 7 19
6 1 -14 -10 -11 -25 -19 -34 -18 -9 2 -15 -3 -13 -10 1 -7 -3 -22 -8 -33 -15
-27 -5 -54 26 -68 21 -9 38 -8 91 9 78 24 160 26 191 4 27 -18 28 -36 5 -56
-29 -25 -60 -27 -161 -12 -52 8 -117 14 -145 14 -52 0 -115 -24 -124 -47 -9
-23 5 -27 32 -9 39 26 110 30 204 12 116 -22 161 -21 202 7 36 24 44 44 35 83
-14 53 -119 70 -240 37 -105 -28 -122 -1 -38 63 48 36 104 45 141 23 14 -9 34
-7 91 10 65 20 97 23 304 24 178 2 236 -1 255 -11 22 -13 22 -15 7 -30 -12
-13 -34 -17 -81 -16 -36 0 -65 -3 -65 -8 0 -4 -12 -8 -27 -8 -39 0 -93 -35
-93 -60 0 -11 6 -30 13 -41 25 -42 -50 -75 -248 -109 -498 -86 -1639 -95
-1797 -14 -58 30 -44 85 30 123 33 17 35 16 82 -7 46 -23 55 -24 137 -16 116
12 206 2 284 -31 35 -14 73 -29 84 -31 l20 -5 -20 16 c-32 26 -106 61 -160 75
-31 8 -103 12 -186 11 -120 -1 -138 1 -157 17 -24 21 -29 61 -10 80 19 19 73
14 143 -15 54 -22 69 -25 90 -15 45 21 33 64 -42 158 -18 23 -33 48 -33 58 0
9 -4 16 -9 16 -5 0 -7 9 -4 20 3 11 0 20 -6 20 -17 0 -13 26 6 45 15 16 17 16
29 1 6 -10 15 -34 19 -54z m503 9 c40 -57 72 -156 72 -217 l0 -44 -40 0 c-39
0 -40 1 -42 38 l-1 37 -4 -37 c-5 -45 -32 -53 -34 -10 -2 23 -2 24 -6 5 -4
-19 -11 -23 -39 -23 -31 0 -34 2 -36 33 l-1 32 -4 -32 c-5 -38 -32 -46 -34
-10 l-2 22 -4 -23 c-4 -18 -9 -21 -31 -16 -15 3 -37 7 -49 10 -15 3 -25 15
-32 42 -39 139 45 239 204 241 49 1 51 0 83 -48z m1062 4 c16 -19 6 -59 -23
-86 -12 -12 -16 -18 -8 -14 10 5 12 4 7 -4 -4 -6 -11 -9 -16 -6 -5 3 -19 -8
-32 -24 -13 -16 -33 -32 -45 -35 l-21 -7 24 58 c13 32 24 63 24 70 0 12 56 63
70 63 4 0 13 -7 20 -15z m-427 -79 c4 -44 1 -52 -22 -72 -14 -13 -29 -24 -33
-24 -17 0 -6 16 25 38 17 12 27 22 21 22 -7 0 -17 -7 -24 -15 -18 -22 -28 -19
-46 17 l-17 32 38 33 c21 18 42 30 46 26 4 -5 9 -30 12 -57z m-822 -217 c5 -9
9 -10 9 -2 0 8 45 11 160 11 l160 -1 1 -26 2 -26 4 28 c3 19 10 27 24 27 20 0
20 -1 2 -30 -9 -16 -20 -30 -24 -30 -4 0 -21 -3 -38 -6 -28 -6 -31 -4 -32 17
-2 24 -2 24 -6 2 -3 -17 -11 -23 -29 -23 -16 0 -28 8 -34 23 -7 17 -9 18 -9 5
-1 -15 -10 -18 -50 -18 -32 0 -55 6 -65 16 -10 9 -16 11 -16 4 0 -7 -8 -9 -22
-4 -30 9 -128 54 -128 58 0 10 84 -14 91 -25z m579 11 c0 -5 -4 -10 -9 -10 -5
0 -16 -3 -25 -6 -9 -3 -16 -1 -16 4 0 9 16 17 43 21 4 0 7 -3 7 -9z m-60 -16
c0 -9 -5 -14 -12 -12 -18 6 -21 28 -4 28 9 0 16 -7 16 -16z m-50 -4 c19 -12
14 -16 -42 -28 -52 -10 -56 -8 -31 20 17 19 49 23 73 8z"/>
<path d="M2852 1670 c0 -19 2 -27 5 -17 2 9 2 25 0 35 -3 9 -5 1 -5 -18z"/>
<path d="M2372 1660 c0 -14 2 -19 5 -12 2 6 2 18 0 25 -3 6 -5 1 -5 -13z"/>
<path d="M2391 1654 c0 -11 3 -14 6 -6 3 7 2 16 -1 19 -3 4 -6 -2 -5 -13z"/>
<path d="M2820 1660 c0 -5 5 -10 10 -10 6 0 10 5 10 10 0 6 -4 10 -10 10 -5 0
-10 -4 -10 -10z"/>
<path d="M2458 1583 c7 -3 16 -2 19 1 4 3 -2 6 -13 5 -11 0 -14 -3 -6 -6z"/>
<path d="M2543 1583 c15 -2 37 -2 50 0 12 2 0 4 -28 4 -27 0 -38 -2 -22 -4z"/>
<path d="M2713 1583 c9 -2 25 -2 35 0 9 3 1 5 -18 5 -19 0 -27 -2 -17 -5z"/>
<path d="M2411 1514 c0 -11 3 -14 6 -6 3 7 2 16 -1 19 -3 4 -6 -2 -5 -13z"/>
<path d="M2431 1474 c0 -11 3 -14 6 -6 3 7 2 16 -1 19 -3 4 -6 -2 -5 -13z"/>
<path d="M2756 1385 c-9 -26 -7 -32 5 -12 6 10 9 21 6 23 -2 3 -7 -2 -11 -11z"/>
<path d="M2471 1074 c0 -11 3 -14 6 -6 3 7 2 16 -1 19 -3 4 -6 -2 -5 -13z"/>
<path d="M2431 1054 c0 -11 3 -14 6 -6 3 7 2 16 -1 19 -3 4 -6 -2 -5 -13z"/>
<path d="M2615 937 c3 -26 19 -59 46 -95 57 -75 59 -78 59 -66 0 5 -20 34 -45
64 -25 30 -49 73 -55 95 l-10 40 5 -38z"/>
<path d="M2722 730 c0 -14 2 -19 5 -12 2 6 2 18 0 25 -3 6 -5 1 -5 -13z"/>
<path d="M2757 1228 c-31 -31 -31 -32 -2 -8 16 14 34 28 40 32 5 5 6 8 2 8 -4
0 -22 -15 -40 -32z"/>
<path d="M2763 914 l-28 -25 33 22 c17 13 32 24 32 26 0 8 -11 1 -37 -23z"/>
<path d="M3270 700 c0 -6 7 -10 15 -10 8 0 15 2 15 4 0 2 -7 6 -15 10 -8 3
-15 1 -15 -4z"/>
<path d="M3608 673 c6 -2 18 -2 25 0 6 3 1 5 -13 5 -14 0 -19 -2 -12 -5z"/>
<path d="M1538 573 c6 -2 18 -2 25 0 6 3 1 5 -13 5 -14 0 -19 -2 -12 -5z"/>
<path d="M1798 573 c6 -2 18 -2 25 0 6 3 1 5 -13 5 -14 0 -19 -2 -12 -5z"/>
<path d="M1801 516 c2 -2 18 -6 34 -10 22 -5 26 -4 15 4 -14 9 -59 15 -49 6z"/>
<path d="M3013 513 c15 -2 37 -2 50 0 12 2 0 4 -28 4 -27 0 -38 -2 -22 -4z"/>
<path d="M3355 510 c3 -5 -15 -15 -40 -21 -25 -6 -45 -15 -45 -19 0 -7 96 23
107 33 2 3 -3 7 -12 11 -9 3 -13 2 -10 -4z"/>
<path d="M1370 484 c0 -13 18 -39 24 -34 2 3 -2 14 -10 24 -8 11 -14 16 -14
10z"/>
<path d="M1528 410 c18 -4 120 -10 225 -13 145 -4 165 -3 82 3 -167 12 -344
18 -307 10z"/>
<path d="M2211 754 c0 -11 3 -14 6 -6 3 7 2 16 -1 19 -3 4 -6 -2 -5 -13z"/>
<path d="M2103 695 c0 -22 2 -30 4 -17 2 12 2 30 0 40 -3 9 -5 -1 -4 -23z"/>
<path d="M2218 680 c-7 -24 -3 -38 8 -28 3 4 4 17 2 30 l-3 23 -7 -25z"/>
<path d="M2783 814 l-28 -25 33 22 c17 13 32 24 32 26 0 8 -11 1 -37 -23z"/>
<path d="M1276 1632 c-36 -75 -34 -131 6 -150 37 -18 74 1 89 45 10 31 8 41
-21 99 -18 35 -36 64 -40 64 -3 0 -19 -26 -34 -58z m84 -77 c0 -37 -15 -55
-46 -55 -56 0 -64 50 -22 135 l21 39 23 -44 c13 -25 23 -59 24 -75z"/>
<path d="M1341 1558 c0 -9 -4 -25 -7 -35 -5 -17 -5 -17 6 0 6 10 9 25 7 35 -4
15 -5 15 -6 0z"/>
<path d="M1993 1645 c-30 -58 -29 -90 1 -110 50 -33 90 24 62 87 -8 18 -20 41
-27 50 -13 15 -16 13 -36 -27z m52 -57 c-2 -27 -7 -33 -26 -33 -29 0 -37 32
-18 77 l13 31 17 -21 c10 -13 16 -35 14 -54z"/>
<path d="M3668 1566 c-60 -22 -85 -42 -115 -93 -23 -40 -27 -59 -27 -118 0
-132 68 -225 191 -261 87 -25 193 7 241 74 18 24 22 25 46 14 15 -7 35 -12 45
-12 21 0 24 -11 41 -155 18 -152 4 -137 125 -129 105 7 105 7 105 -16 0 -28
60 -353 67 -360 16 -17 30 95 49 389 l7 104 -34 -7 c-18 -3 -56 -9 -84 -12
l-52 -6 -7 32 c-3 18 -6 48 -6 66 0 31 3 34 30 34 48 0 103 34 160 99 37 43
59 61 76 61 33 0 30 25 -4 39 -16 7 -46 35 -68 63 -63 83 -132 110 -188 72
-23 -14 -25 -14 -31 5 -3 11 -23 35 -45 55 -67 60 -155 61 -214 1 l-34 -34
-23 26 c-64 68 -174 98 -251 69z m133 -27 c53 -16 103 -61 129 -114 24 -50 40
-51 40 -2 0 68 68 116 138 97 46 -12 99 -65 117 -116 17 -49 28 -52 40 -12 7
22 19 36 37 42 43 15 84 -9 134 -80 l46 -64 -54 -61 c-55 -64 -82 -82 -136
-94 -49 -10 -116 26 -139 75 -21 46 -29 48 -55 15 -23 -30 -72 -34 -100 -8
-18 16 -21 15 -56 -24 -63 -68 -128 -90 -214 -72 -89 20 -163 107 -175 208
-18 150 104 253 248 210z m350 -375 c13 -14 36 -32 50 -40 25 -12 27 -20 34
-94 l7 -80 32 1 c17 0 55 4 84 8 l54 8 -7 -156 c-4 -86 -10 -162 -14 -169 -4
-6 -17 47 -29 120 -13 72 -25 135 -28 140 -3 4 -50 8 -104 8 l-99 0 -6 58 c-4
31 -13 92 -20 135 -6 42 -9 79 -7 82 11 11 30 4 53 -21z"/>
<path d="M3831 1498 c2 -2 18 -14 34 -28 l30 -25 -24 28 c-14 15 -29 27 -34
27 -6 0 -8 -1 -6 -2z"/>
<path d="M4380 1375 c13 -14 26 -25 28 -25 3 0 -5 11 -18 25 -13 14 -26 25
-28 25 -3 0 5 -11 18 -25z"/>
<path d="M4330 1386 c0 -2 7 -7 16 -10 8 -3 12 -2 9 4 -6 10 -25 14 -25 6z"/>
<path d="M3610 1295 c0 -12 48 -85 56 -85 3 0 -3 12 -14 28 -10 15 -24 36 -30
47 -6 11 -12 15 -12 10z"/>
<path d="M3590 1273 c0 -33 90 -115 140 -127 14 -3 8 2 -15 14 -53 25 -67 38
-99 84 -14 21 -26 35 -26 29z"/>
<path d="M3656 1257 c3 -10 9 -15 12 -12 3 3 0 11 -7 18 -10 9 -11 8 -5 -6z"/>
<path d="M4172 1234 c10 -10 20 -15 24 -12 3 4 -5 12 -18 18 -22 12 -22 12 -6
-6z"/>
<path d="M4017 1229 c7 -7 15 -10 18 -7 3 3 -2 9 -12 12 -14 6 -15 5 -6 -5z"/>
<path d="M4222 1224 c10 -10 20 -16 22 -13 3 3 -5 11 -17 18 -21 13 -21 12 -5
-5z"/>
<path d="M4226 1190 c6 -6 28 -13 50 -15 21 -2 30 -2 19 1 -11 3 -33 10 -50
15 -21 7 -26 6 -19 -1z"/>
<path d="M4330 1190 c-9 -6 -10 -10 -3 -10 6 0 15 5 18 10 8 12 4 12 -15 0z"/>
<path d="M1662 1424 c-28 -56 -28 -89 -1 -108 28 -19 65 -3 74 31 5 22 -27
107 -45 118 -4 2 -16 -16 -28 -41z m43 -7 c19 -30 3 -90 -24 -85 -21 4 -26 42
-11 79 15 35 16 35 35 6z"/>
<path d="M1801 1064 c-30 -38 -37 -106 -16 -159 20 -53 35 -58 35 -12 0 19 12
50 30 77 33 50 40 104 14 114 -28 11 -42 6 -63 -20z m62 -6 c6 -19 -10 -56
-38 -90 l-24 -29 4 45 c5 50 23 86 42 86 6 0 13 -6 16 -12z"/>
<path d="M1442 938 c-43 -43 33 -148 107 -148 19 0 19 3 -8 60 -42 93 -70 117
-99 88z m66 -63 c24 -50 27 -65 12 -65 -5 0 -10 7 -10 15 0 8 -4 15 -9 15 -5
0 -13 10 -16 21 -5 16 -9 18 -15 9 -6 -9 -10 -7 -15 9 -3 11 -3 25 0 31 13 21
32 8 53 -35z"/>
</g>
</svg>
